<svg class="animated" id="freepik_stories-brain-organ" xmlns="http://www.w3.org/2000/svg" viewBox="0 0 500 500" version="1.1" xmlns:xlink="http://www.w3.org/1999/xlink" xmlns:svgjs="http://svgjs.com/svgjs"><style>svg#freepik_stories-brain-organ:not(.animated) .animable {opacity: 0;}svg#freepik_stories-brain-organ.animated #freepik--background-complete--inject-267 {animation: 6s Infinite  linear floating;animation-delay: 0s;}svg#freepik_stories-brain-organ.animated #freepik--Brain--inject-267 {animation: 6s Infinite  linear floating;animation-delay: 0s;}            @keyframes floating {                0% {                    opacity: 1;                    transform: translateY(0px);                }                50% {                    transform: translateY(-10px);                }                100% {                    opacity: 1;                    transform: translateY(0px);                }            }        </style><g id="freepik--background-complete--inject-267" class="animable animator-active" style="transform-origin: 250px 255.478px;"><g id="elgpr2mwwfqq4" class="animable" style="transform-origin: 250px 235.135px;"><g id="elo222yaontwg" class="animable" style="transform-origin: 250px 223.358px;"><g id="elaem1hwbjez4" class="animable" style="transform-origin: 249.333px 192.699px;"><path d="M443.92,330.198h-180.746c-3.232,0-5.862-2.63-5.862-5.862V61.062c0-3.232,2.63-5.862,5.862-5.862h180.746c3.232,0,5.862,2.629,5.862,5.862V324.335c0,3.233-2.63,5.862-5.862,5.862ZM263.174,55.45c-3.095,0-5.612,2.518-5.612,5.612V324.335c0,3.095,2.518,5.612,5.612,5.612h180.746c3.095,0,5.612-2.517,5.612-5.612V61.062c0-3.094-2.518-5.612-5.612-5.612h-180.746Z" style="fill: rgb(224, 224, 224); transform-origin: 353.547px 192.699px;" id="elug5kxcunl1o" class="animable"></path><path d="M235.493,330.198H54.746c-3.232,0-5.862-2.63-5.862-5.862V61.062c0-3.232,2.629-5.862,5.862-5.862H235.493c3.232,0,5.862,2.629,5.862,5.862V324.335c0,3.233-2.63,5.862-5.862,5.862ZM54.746,55.45c-3.094,0-5.612,2.518-5.612,5.612V324.335c0,3.095,2.518,5.612,5.612,5.612H235.493c3.095,0,5.612-2.517,5.612-5.612V61.062c0-3.094-2.518-5.612-5.612-5.612H54.746Z" style="fill: rgb(224, 224, 224); transform-origin: 145.119px 192.699px;" id="el9qvyguxtphm" class="animable"></path></g><rect x="0" y="391.267" width="500" height=".25" style="fill: rgb(224, 224, 224); transform-origin: 250px 391.392px;" id="elh5eg91yho85" class="animable"></rect></g><rect x="51.672" y="405.531" width="16.06" height=".25" style="fill: rgb(224, 224, 224); transform-origin: 59.702px 405.656px;" id="el0iaole3zoi3" class="animable"></rect><rect x="170.352" y="402.821" width="53.53" height=".25" style="fill: rgb(224, 224, 224); transform-origin: 197.117px 402.946px;" id="eliipd4wix8dl" class="animable"></rect><rect x="68.732" y="414.821" width="36.25" height=".25" style="fill: rgb(224, 224, 224); transform-origin: 86.857px 414.946px;" id="el8is1kp6xdfy" class="animable"></rect><rect x="378.352" y="402.691" width="43.19" height=".25" style="fill: rgb(224, 224, 224); transform-origin: 399.947px 402.816px;" id="elfalesa1milg" class="animable"></rect><rect x="430.452" y="402.691" width="6.33" height=".25" style="fill: rgb(224, 224, 224); transform-origin: 433.617px 402.816px;" id="elmz2fjd7mnsi" class="animable"></rect><rect x="316.212" y="408.921" width="53.89" height=".25" style="fill: rgb(224, 224, 224); transform-origin: 343.157px 409.046px;" id="el6jtc2mqqtyb" class="animable"></rect></g><path d="M263.32,458.019l-9.034-138.803,.306-.022,10.26,138.718c-.511,.038-1.02,.073-1.531,.107Zm-28.035-.096l-1.334-.103,11.092-138.652,.502,.038-10.26,138.718Zm57.804-4.159l-30.348-135.745,.658-.148,30.828,135.637-1.138,.256Zm-87.161-.219l-1.309-.302,31.607-135.457,.484,.111-30.782,135.648Zm115.454-8.309l-49.96-129.814,.364-.141,50.949,129.428c-.449,.178-.9,.353-1.353,.527Zm-143.901-.436l-1.248-.494,51.518-129.204,.47,.186-50.74,129.511Zm170.861-12.35l-69.011-120.769,.464-.266,69.677,120.387-1.129,.648Zm-197.711-.582c-.413-.238-.825-.479-1.236-.721l70.507-119.902,.357,.208-69.628,120.414Zm222.186-15.891l-85.937-109.373,.267-.212,86.843,108.656c-.389,.312-.78,.621-1.173,.929Zm-246.649-.792c-.432-.344-.863-.69-1.292-1.039l87.79-107.892,.144,.115-86.642,108.816Zm268.607-19.306l-101.374-95.243,.321-.344,101.988,94.585-.935,1.002Zm-290.388-.882l-.872-.944,102.381-94.158,.376,.407-101.884,94.696Zm308.957-22.042l-114.202-79.41,.169-.245,114.908,78.383c-.29,.426-.581,.848-.876,1.272Zm-327.458-1.097c-.275-.401-.548-.805-.82-1.208l115.385-77.678,.211,.311-114.777,78.575Zm342.637-24.729l-124.98-61.056,.284-.583,125.219,60.563-.523,1.076Zm-357.536-.976c-.213-.441-.425-.883-.635-1.326l125.703-59.554,.157,.328-125.224,60.552Zm368.535-26.474l-132.596-42.022,.1-.325,132.945,40.907c-.149,.48-.298,.961-.45,1.441Zm-379.45-1.253c-.139-.45-.276-.899-.412-1.349l133.196-40.083,.125,.41-132.909,41.022Zm386.292-27.889l-137.45-21.335,.077-.509,137.573,20.533-.2,1.311Zm-392.907-1.076c-.071-.471-.14-.942-.207-1.413l137.69-19.729,.06,.408-137.542,20.734Zm395.287-28.217l-139.091-1.234v-.574h139.097v.271c0,.513-.002,1.026-.006,1.537Zm-258.412-1.402H51.237l.003-1.281,139.094,.722v.56Zm118.692-8.896l-.043-.293,137.511-20.934c.078,.509,.153,1.018,.226,1.528l-137.694,19.7Zm-118.033-.207l-137.606-20.303c.071-.481,.144-.962,.219-1.442l137.445,21.367-.057,.378Zm116.177-8.196l-.195-.635,132.891-41.08,.346,1.126-133.042,40.589Zm-114.241-.362L59.966,201.331l.409-1.314,132.695,41.71-.141,.452Zm111.048-7.952l-.239-.499,125.185-60.633,.556,1.155-125.502,59.977Zm-107.837-.267l-125.299-60.397,.562-1.159,124.98,61.056-.243,.501Zm103.464-7.422l-.356-.524,114.776-78.575,.678,.995-115.098,78.103Zm-98.973-.364l-114.972-78.288c.269-.395,.539-.789,.811-1.182l114.393,79.133-.232,.337Zm93.219-6.92l-.176-.189,101.783-94.805c.359,.386,.717,.774,1.073,1.162l-102.68,93.832Zm-87.631-.087L104.137,124.684c.324-.35,.649-.698,.976-1.046l101.386,95.229-.279,.299Zm81.159-5.964l-.307-.246,86.642-108.815c.378,.3,.755,.603,1.131,.907l-87.466,108.155Zm-74.581-.15L125.829,104.497c.389-.312,.78-.622,1.172-.931l86.064,109.274-.268,.213Zm67.293-4.886l-.401-.233,69.474-120.504,1.193,.693-70.265,120.044Zm-59.938-.148l-69.831-120.297c.412-.239,.825-.476,1.238-.713l68.944,120.807-.352,.203Zm51.887-3.789l-.364-.144,50.67-129.538c.453,.177,.904,.355,1.353,.535l-51.659,129.147Zm-43.874-.087l-51.128-129.358c.457-.181,.914-.359,1.372-.536l50.097,129.76-.342,.133Zm35.466-2.55l-.366-.084,30.543-135.701c.477,.107,.954,.217,1.429,.327l-31.606,135.457Zm-27.077-.046l-31.022-135.592c.483-.11,.967-.22,1.452-.327l29.914,135.841-.344,.077Zm18.247-1.317l-.391-.029,10.056-138.732c.482,.035,.964,.072,1.443,.11l-11.108,138.651Zm-9.43-.015l-10.479-138.701c.48-.036,.961-.071,1.443-.103l9.43,138.776-.393,.028Z" style="fill: rgb(240, 240, 240); transform-origin: 249.993px 259.716px;" id="elja8osnsp4si" class="animable"></path><g id="elyovayyynphh" class="animable" style="transform-origin: 112.464px 124.511px;"><path d="M62.551,52.937c1.2,35.955,23.474,70.434,55.758,86.308,1.978-19.429-3.826-40.982-15.046-54.215-11.22-13.233-26.084-22.765-40.712-32.093Z" style="fill: rgb(235, 235, 235); transform-origin: 90.621px 96.091px;" id="elfrn9k1rv4u" class="animable"></path><path d="M126.576,128.423c2.347,14.322,9.533,27.807,20.111,37.743,6.358-11.775,4.947-29.827,2.052-42.892-2.895-13.064-8.927-25.196-15.153-37.041-6.853,12.793-9.357,27.867-7.009,42.189Z" style="fill: rgb(235, 235, 235); transform-origin: 138.452px 126.2px;" id="elbk653ehb3y9" class="animable"></path><path d="M167.129,196.083c-.123,0-.245-.044-.341-.135-33.085-30.889-60.224-67.029-80.661-107.416-.125-.246-.026-.547,.221-.672,.246-.125,.546-.026,.672,.221,20.383,40.281,47.451,76.327,80.451,107.137,.202,.188,.212,.504,.024,.707-.098,.105-.231,.159-.365,.159Z" style="fill: rgb(224, 224, 224); transform-origin: 126.851px 141.945px;" id="el4cgexz4306r" class="animable"></path><path d="M150.298,178.685c-.205,0-.397-.127-.471-.332-8.036-22.428-13.356-46.13-16.265-72.46-.03-.274,.167-.521,.442-.552,.275-.024,.521,.168,.552,.442,2.9,26.251,8.203,49.878,16.212,72.233,.093,.26-.042,.546-.302,.639-.056,.02-.112,.029-.168,.029Z" style="fill: rgb(224, 224, 224); transform-origin: 142.178px 142.012px;" id="elf5gdxrunbgg" class="animable"></path><path d="M117.794,162.114c11.72,3.016,22.384,9.988,29.849,19.513-10.252,4.403-25.14,1.887-35.774-1.49-10.635-3.377-20.261-9.29-29.634-15.343,11.135-4.738,23.84-5.696,35.56-2.68Z" style="fill: rgb(235, 235, 235); transform-origin: 114.939px 172.184px;" id="elwy3bvaoh1mn" class="animable"></path><path d="M90.155,129.182c10.829,2.787,20.682,9.228,27.579,18.029-9.473,4.068-23.228,1.744-33.054-1.377-9.826-3.12-18.72-8.584-27.381-14.177,10.289-4.378,22.028-5.263,32.856-2.476Z" style="fill: rgb(235, 235, 235); transform-origin: 87.5165px 138.486px;" id="el6ncfe6us9p7" class="animable"></path><path d="M156.074,185.426c-.07,0-.142-.015-.209-.046-17.572-8.133-35.301-13.759-57.484-18.242-.271-.055-.446-.319-.391-.589,.054-.271,.314-.446,.589-.391,22.263,4.5,40.06,10.148,57.706,18.315,.25,.116,.36,.413,.244,.664-.084,.183-.265,.29-.454,.29Z" style="fill: rgb(224, 224, 224); transform-origin: 127.278px 175.787px;" id="el6305ie59ypp" class="animable"></path><path d="M125.471,150.609c-.057,0-.116-.01-.172-.031-12.249-4.501-24.822-8.618-37.37-12.236-.265-.077-.418-.354-.342-.619,.076-.264,.351-.416,.619-.342,12.571,3.625,25.167,7.749,37.438,12.258,.259,.095,.392,.382,.297,.642-.074,.203-.266,.328-.469,.328Z" style="fill: rgb(224, 224, 224); transform-origin: 106.77px 143.986px;" id="elsq5pey82tob" class="animable"></path></g><g id="el5u65z367inw" class="animable" style="transform-origin: 394.061px 380.008px;"><path d="M453.945,429.456c-31.375-2.925-60.359-24.199-72.555-53.255,17.091-.716,35.633,5.484,46.618,15.984,10.985,10.5,18.544,23.994,25.937,37.271Z" style="fill: rgb(235, 235, 235); transform-origin: 417.668px 402.801px;" id="el58fcdmtt6qk" class="animable"></path><path d="M391.284,369.537c-12.4-2.8-23.816-9.786-31.952-19.553,10.627-4.944,26.338-2.769,37.61,.444,11.272,3.213,21.564,9.12,31.596,15.182-11.543,5.324-24.854,6.727-37.254,3.928Z" style="fill: rgb(235, 235, 235); transform-origin: 393.935px 359.009px;" id="elqs7f5aqk6l" class="animable"></path><path d="M424.272,407.106c-.086,0-.173-.021-.252-.068-34.252-19.979-64.44-45.598-89.727-76.144-.177-.212-.146-.527,.066-.703,.211-.176,.526-.148,.703,.066,25.212,30.454,55.311,55.997,89.461,75.917,.238,.139,.319,.445,.18,.684-.093,.159-.26,.248-.432,.248Z" style="fill: rgb(224, 224, 224); transform-origin: 379.474px 368.591px;" id="elqxytno757r" class="animable"></path><path d="M411.423,364.672c-.028,0-.057-.002-.085-.007-22.874-3.918-43.325-9.808-62.522-18.006-.254-.108-.372-.402-.264-.656,.108-.255,.401-.373,.656-.264,19.124,8.168,39.502,14.036,62.298,17.939,.272,.047,.455,.306,.409,.577-.042,.244-.254,.416-.492,.416Z" style="fill: rgb(224, 224, 224); transform-origin: 380.217px 355.185px;" id="el6742d6x0s95" class="animable"></path><path d="M361.368,375.458c-2.026-10.405-7.565-20.093-15.504-27.116-4.385,8.734-2.962,21.883-.564,31.357,2.398,9.474,7.066,18.199,11.869,26.711,4.724-9.489,6.224-20.548,4.198-30.952Z" style="fill: rgb(235, 235, 235); transform-origin: 352.638px 377.376px;" id="el0rt7rr1rtea" class="animable"></path><path d="M388.72,401.342c-1.872-9.613-6.99-18.565-14.325-25.054-4.051,8.07-2.737,20.219-.521,28.973,2.216,8.754,6.529,16.816,10.967,24.68,4.365-8.767,5.751-18.985,3.879-28.598Z" style="fill: rgb(235, 235, 235); transform-origin: 380.654px 403.115px;" id="elqjdd0d8gr1" class="animable"></path><path d="M356.396,392.608c-.245,0-.459-.181-.494-.431-2.763-19.626-6.756-35.416-12.948-51.198-.101-.257,.026-.547,.283-.648,.255-.102,.547,.025,.648,.283,6.222,15.858,10.232,31.718,13.007,51.425,.038,.273-.152,.526-.426,.564-.023,.003-.047,.005-.07,.005Z" style="fill: rgb(224, 224, 224); transform-origin: 349.908px 366.452px;" id="elqybzyvhi1mf" class="animable"></path><path d="M381.021,403.215c-.229,0-.436-.158-.488-.391-2.509-11.162-5.452-22.369-8.747-33.308-.08-.265,.07-.544,.334-.623,.27-.08,.543,.07,.623,.334,3.303,10.962,6.252,22.191,8.767,33.378,.061,.27-.109,.537-.379,.598-.037,.008-.073,.012-.109,.012Z" style="fill: rgb(224, 224, 224); transform-origin: 376.643px 386.043px;" id="el1pmxb3csvqm" class="animable"></path></g><path d="M357.045,110.942c-2.888,4.398-4.83,9.23-5.866,14.213l-7.937,.747v15.371l7.937,.748c1.033,4.982,2.977,9.813,5.865,14.213l-5.07,6.123,10.869,10.869,6.123-5.069c4.399,2.888,9.23,4.831,14.213,5.865l.747,7.938h15.37l.748-7.937c4.983-1.035,9.814-2.978,14.213-5.866l6.123,5.069,10.869-10.869-5.069-6.123c2.888-4.399,4.83-9.23,5.865-14.213l7.936-.748v-15.37l-7.936-.748c-1.034-4.982-2.978-9.814-5.866-14.212l5.069-6.123-10.869-10.869-6.123,5.069c-4.399-2.888-9.231-4.832-14.213-5.866l-.748-7.937h-15.371l-.747,7.938c-4.983,1.034-9.814,2.977-14.212,5.865l-6.123-5.069-10.869,10.869,5.07,6.123Zm49.283,7.933c8.125,8.125,8.126,21.301,0,29.427-8.127,8.126-21.302,8.126-29.428,0s-8.126-21.301,0-29.427c8.126-8.126,21.3-8.126,29.427,0Z" style="fill: rgb(235, 235, 235); transform-origin: 391.611px 133.589px;" id="elp12kq21o2mp" class="animable"></path><path d="M83.944,348.724c-3.198,4.87-5.348,10.219-6.494,15.737l-8.788,.827v17.018l8.788,.828c1.144,5.516,3.296,10.865,6.494,15.736l-5.613,6.78,12.034,12.034,6.78-5.612c4.871,3.197,10.22,5.349,15.737,6.494l.827,8.789h17.018l.828-8.788c5.517-1.146,10.866-3.297,15.737-6.494l6.78,5.612,12.034-12.034-5.612-6.78c3.197-4.871,5.348-10.22,6.493-15.736l8.787-.828v-17.018l-8.787-.828c-1.145-5.516-3.297-10.865-6.495-15.736l5.613-6.78-12.034-12.034-6.779,5.613c-4.871-3.198-10.22-5.35-15.736-6.495l-.828-8.788h-17.018l-.827,8.789c-5.517,1.145-10.866,3.296-15.736,6.494l-6.78-5.613-12.034,12.035,5.613,6.78Zm54.566,8.783c8.996,8.997,8.997,23.585,0,32.582-8.998,8.997-23.586,8.996-32.582,0-8.997-8.997-8.997-23.584,0-32.582,8.997-8.997,23.584-8.997,32.582,0Z" style="fill: rgb(235, 235, 235); transform-origin: 122.218px 373.798px;" id="elnq4qa9g7oe" class="animable"></path><path d="M312.038,91.301c-1.249,1.902-2.089,3.992-2.537,6.148l-3.433,.323v6.648l3.433,.323c.447,2.155,1.288,4.245,2.537,6.147l-2.193,2.649,4.701,4.701,2.648-2.193c1.903,1.249,3.992,2.089,6.147,2.537l.323,3.433h6.648l.323-3.433c2.155-.448,4.245-1.288,6.148-2.537l2.648,2.193,4.701-4.701-2.192-2.648c1.249-1.903,2.089-3.992,2.537-6.147l3.433-.323v-6.648l-3.433-.323c-.447-2.155-1.288-4.245-2.537-6.147l2.193-2.649-4.701-4.701-2.648,2.193c-1.903-1.249-3.993-2.09-6.147-2.537l-.323-3.433h-6.648l-.323,3.433c-2.155,.447-4.245,1.288-6.147,2.537l-2.648-2.193-4.701,4.701,2.193,2.648Zm21.316,3.431c3.514,3.515,3.514,9.213,0,12.728-3.515,3.515-9.214,3.514-12.728,0-3.515-3.515-3.515-9.213,0-12.728,3.515-3.514,9.213-3.515,12.728,0Z" style="fill: rgb(235, 235, 235); transform-origin: 326.989px 101.096px;" id="elqi096j1imbq" class="animable"></path></g><g id="freepik--Shadow--inject-267" class="animable" style="transform-origin: 250px 466.221px;"><path d="M411.144,466.221c0,3.2-72.146,5.794-161.144,5.794s-161.144-2.594-161.144-5.794,72.146-5.794,161.144-5.794,161.144,2.594,161.144,5.794Z" style="fill: rgb(245, 245, 245); transform-origin: 250px 466.221px;" id="elnk2ezf1jsf" class="animable"></path></g><g id="freepik--Brain--inject-267" class="animable" style="transform-origin: 252.757px 265.587px;"><g id="el6wllmaj8gsu" class="animable" style="transform-origin: 252.757px 265.587px;"><path d="M370.435,326.871l-119.354,2.958-119.354-2.958c-2.477,16.489-.586,34.945,10.868,47.062,8.335,8.818,20.651,13.002,32.755,13.848,12.104,.847,24.195-1.312,36.136-3.461,11.416,7.853,26.984,9.047,39.596,3.427,12.612,5.62,28.18,4.425,39.595-3.427,11.942,2.149,24.032,4.308,36.136,3.461,12.104-.847,24.42-5.03,32.755-13.848,11.454-12.118,13.344-30.573,10.868-47.062Z" style="fill: #00FF88; transform-origin: 251.081px 359.053px;" id="elc4yr9x1pdxu" class="animable"></path><g id="elvo3xfnpw4ot"><g style="opacity: 0.2; transform-origin: 251.081px 359.053px;" class="animable" id="el3q22qcpw3gs"><path d="M370.435,326.871l-119.354,2.958-119.354-2.958c-2.477,16.489-.586,34.945,10.868,47.062,8.335,8.818,20.651,13.002,32.755,13.848,12.104,.847,24.195-1.312,36.136-3.461,11.416,7.853,26.984,9.047,39.596,3.427,12.612,5.62,28.18,4.425,39.595-3.427,11.942,2.149,24.032,4.308,36.136,3.461,12.104-.847,24.42-5.03,32.755-13.848,11.454-12.118,13.344-30.573,10.868-47.062Z" style="fill: rgb(255, 255, 255); transform-origin: 251.081px 359.053px;" id="el94ns07i3m48" class="animable"></path></g></g><g id="elcup7qkqb5q5"><g style="opacity: 0.1; transform-origin: 251.412px 363.368px;" class="animable" id="elbnu16fnrmak"><path d="M300.591,350.425c-.196-5.147-2.079-10.061-3.938-14.865l-94.268,22.676c-.892,5.569,1.87,11.549,6.688,14.481,3.212,1.954,7.158,2.625,10.064,5.01,2.111,1.733,3.465,4.206,5.319,6.212,5.972,6.464,15.815,7.049,24.614,7.192,6.326,.103,12.77,.19,18.83-1.629,6.06-1.818,11.785-5.881,13.989-11.811,.942-2.534,1.251-5.38,2.887-7.532,2.385-3.136,6.788-3.826,10.006-6.1,4.207-2.972,6.005-8.488,5.809-13.635Z" id="elkeoj0gmgoc" class="animable" style="transform-origin: 251.412px 363.368px;"></path></g></g><g id="el6roy7if1ebj" class="animable" style="transform-origin: 250.863px 267.48px;"><g id="el8gkaifnmzs4" class="animable" style="transform-origin: 249.344px 366.843px;"><path d="M285.563,343.472l-8.176-38.795-19.787-4.586v-3.826l-8.254,1.913-8.255-1.913v3.826l-19.787,4.586-8.176,38.795c-.566,9.823,4.623,19.769,13.004,24.925,1.698,1.045,3.63,2.029,4.452,3.846,.787,1.739,.331,3.753,.008,5.634-1.171,6.823-.348,13.977,2.341,20.356,2.17,5.148,5.584,10.759,3.365,15.886-1.055,2.438-3.359,4.848-2.391,7.322,.926,2.365,4.407,3.065,5.034,5.525,.798,3.128-3.76,6.206-1.871,9.08,.603,.918,1.694,1.412,2.792,1.374,.774-.026,1.479-.1,2.133-.209,4.874-.813,9.824-.813,14.698,0,.654,.109,1.359,.182,2.133,.209,1.098,.038,2.189-.457,2.792-1.374,1.889-2.874-2.669-5.952-1.871-9.08,.628-2.46,4.109-3.161,5.034-5.525,.968-2.474-1.336-4.884-2.391-7.322-2.219-5.128,1.195-10.738,3.365-15.886,2.689-6.379,3.512-13.533,2.341-20.356-.323-1.881-.779-3.895,.008-5.634,.822-1.816,2.754-2.801,4.452-3.846,8.381-5.156,13.57-15.101,13.004-24.925Z" style="fill: #00FF88; transform-origin: 249.344px 366.843px;" id="el24uf4n6c65q" class="animable"></path><g id="elbay34fyq9n9"><g style="opacity: 0.2; transform-origin: 249.344px 366.843px;" class="animable" id="el0g4j8b9vc1xm"><path d="M285.563,343.472l-8.176-38.795-19.787-4.586v-3.826l-8.254,1.913-8.255-1.913v3.826l-19.787,4.586-8.176,38.795c-.566,9.823,4.623,19.769,13.004,24.925,1.698,1.045,3.63,2.029,4.452,3.846,.787,1.739,.331,3.753,.008,5.634-1.171,6.823-.348,13.977,2.341,20.356,2.17,5.148,5.584,10.759,3.365,15.886-1.055,2.438-3.359,4.848-2.391,7.322,.926,2.365,4.407,3.065,5.034,5.525,.798,3.128-3.76,6.206-1.871,9.08,.603,.918,1.694,1.412,2.792,1.374,.774-.026,1.479-.1,2.133-.209,4.874-.813,9.824-.813,14.698,0,.654,.109,1.359,.182,2.133,.209,1.098,.038,2.189-.457,2.792-1.374,1.889-2.874-2.669-5.952-1.871-9.08,.628-2.46,4.109-3.161,5.034-5.525,.968-2.474-1.336-4.884-2.391-7.322-2.219-5.128,1.195-10.738,3.365-15.886,2.689-6.379,3.512-13.533,2.341-20.356-.323-1.881-.779-3.895,.008-5.634,.822-1.816,2.754-2.801,4.452-3.846,8.381-5.156,13.57-15.101,13.004-24.925Z" id="elztnc1ia3l" class="animable" style="transform-origin: 249.344px 366.843px;"></path></g></g><g id="elo5ikst6lmlb"><g style="opacity: 0.2; transform-origin: 249.345px 371.332px;" class="animable" id="el0xi3fuajor9p"><path d="M271.202,310.739l-20.904-4.845v-.442l-.953,.221-.952-.221v.442l-20.905,4.845-7.093,33.656c-.211,7.011,3.586,14.106,9.562,17.782l.544,.33c2.019,1.213,5.071,3.048,6.736,6.726,1.651,3.651,1.036,7.134,.628,9.439l-.077,.439c-.931,5.427-.266,11.21,1.873,16.285,.323,.766,.677,1.544,1.033,2.329,2.302,5.072,5.454,12.019,2.305,19.293-.084,.195-.171,.386-.259,.571-.43,.904-.222,1.967,.477,2.684,1.143,1.175,2.257,2.756,2.801,4.886,.388,1.522-2.615,10.579-2.818,11.868,4.503-.635,8.797-.524,13.496,.184-.203-1.289-4.408-10.53-4.02-12.05,.545-2.139,1.666-3.725,2.813-4.901,.691-.709,.897-1.76,.471-2.654-.091-.191-.181-.387-.268-.588-3.149-7.276,.004-14.223,2.306-19.297,.356-.784,.709-1.56,1.032-2.325,2.138-5.074,2.803-10.858,1.871-16.287l-.078-.446c-.406-2.303-1.02-5.785,.632-9.434,1.664-3.676,4.715-5.51,6.734-6.723l.543-.329c5.976-3.677,9.773-10.772,9.562-17.783l-7.093-33.656Z" id="elzs50fyjqbhg" class="animable" style="transform-origin: 249.345px 371.332px;"></path></g></g></g><g id="el414n72enrfy"><path d="M196.243,361.629s12.646,4.081,22.595-7.029c9.949-11.11,15.255-27.088,16.084-32.364,0,0,17.577-4.48,15.511-24.711l-15.677,1.859-30.907,19.234-7.606,43.01Z" style="opacity: 0.2; transform-origin: 223.422px 329.943px;" class="animable" id="el20tgg6v12cai"></path></g><g id="eldjzv7xdrift"><path d="M305.483,361.629s-12.646,4.081-22.595-7.029c-9.949-11.11-15.255-27.088-16.084-32.364,0,0-17.577-4.48-15.511-24.711l15.677,1.859,30.907,19.234,7.606,43.01Z" style="opacity: 0.2; transform-origin: 278.304px 329.943px;" class="animable" id="eltqsmkzvihp9"></path></g><rect x="238.559" y="97.538" width="27.164" height="199.988" style="fill: #00FF88; transform-origin: 252.141px 197.532px;" id="ely5ho3c1l8mr" class="animable"></rect><g id="elwwu0edghnc"><rect x="238.559" y="97.538" width="27.164" height="199.988" style="opacity: 0.2; transform-origin: 252.141px 197.532px;" class="animable" id="elvcuph8ng8rf"></rect></g></g><g id="el65tmhg6e576" class="animable" style="transform-origin: 169.865px 230.299px;"><path d="M252.602,100.73s-5.871-12.974-27.674-3.539c0,0-45.11-3.145-80.071,43.248,0,0-46.151,22.552-48.869,77.454l-.002,16.906s-23.309,31.203,0,58.653c0,0-6.764,21.159,11.656,36.493,0,0,6.767,22.804,38.72,33.026,31.953,10.222,75.56-.393,83.83-24.769s6.015-19.265,6.015-19.265h0c10.539-2.526,17.982-12.377,17.895-23.685l-1.499-194.522Z" style="fill: #00FF88; transform-origin: 169.865px 230.298px;" id="el87kwnlg3sun" class="animable"></path><g id="el02o8x671020c"><g style="opacity: 0.4; transform-origin: 173.715px 230.056px;" class="animable" id="elbbzrndau8u5"><path d="M253.019,237.618c-16.361,10.549-38.917,5.249-49.593-10.87-3.555-5.113-5.858-11.065-6.596-17.151,1.508,5.939,4.232,11.458,7.859,16.234,11.094,15.042,31.507,19.864,48.33,11.786h0Z" id="elr7hijfn8vnp" class="animable" style="transform-origin: 224.924px 226.341px;"></path><path d="M201.049,225.806c-13.267,10.827-32.657,14.111-48.688,8.004,16.617,3.246,33.962,.317,48.688-8.004h0Z" id="el2tmqq3rcmjs" class="animable" style="transform-origin: 176.705px 231.331px;"></path><path d="M175.79,236.086c-4.905,3.721-6.375,10.177-6.719,16.019-.57,11.869,4.722,23.961,14.612,30.769,4.873,3.399,10.654,5.592,16.739,6.087-6.149,.298-12.392-1.475-17.603-4.787-10.749-6.623-16.541-19.757-15.298-32.182,.616-5.983,2.756-12.773,8.269-15.906h0Z" id="el6jg0jx0qhs2" class="animable" style="transform-origin: 183.888px 262.54px;"></path><path d="M253.015,271.081c-16.691,8.901-43.037,6.24-54.254-10.156-1.489-2.438-2.596-5.122-2.976-7.911,1.567,5.387,5.236,9.765,9.692,13.003,13.664,9.501,32.07,10.509,47.538,5.064h0Z" id="eli2911aqlrgi" class="animable" style="transform-origin: 224.4px 264.558px;"></path><path d="M199.655,165.168c6.889-2.072,12.482-7.156,14.959-13.895,.838-2.205,1.378-4.539,1.676-6.996,2.253,10.005-6.199,21.175-16.635,20.891h0Z" id="elnxx5wcb4kh" class="animable" style="transform-origin: 208.156px 154.725px;"></path><path d="M252.666,194.182c-20.196,.414-32.828-19.246-40.19-35.654,2.673,3.874,5.174,7.839,7.832,11.665,7.695,11.281,18.125,22.24,32.359,23.989h0Z" id="eltrobhrjwsdm" class="animable" style="transform-origin: 232.571px 176.358px;"></path><path d="M251.943,154.404c-7.249-10.699-16.188-23.603-30.383-23.905-4.392-.013-8.884,1.401-12.357,4.44,2.87-3.649,7.583-5.738,12.31-6,14.9-.625,25.028,13.211,30.43,25.465h0Z" id="el0vgnotygtt3j" class="animable" style="transform-origin: 230.573px 141.661px;"></path><path d="M224.832,128.951c.312-5.715-3.763-10.056-8.387-12.754-1.57-.962-3.238-1.849-4.851-2.916,3.842,.609,7.649,1.947,10.546,4.695,2.824,2.697,4.585,7.348,2.692,10.976h0Z" id="eluddtfk13t8d" class="animable" style="transform-origin: 218.607px 121.117px;"></path><path d="M192.043,120.52c-2.924,9.258-3.717,19.052-1.922,28.589,.581,3.159,1.431,6.277,2.517,9.367l-.219,.079-.118-.972,.345,.917-.219,.079c-1.742-2.799-3.028-5.897-3.895-9.108-2.535-9.576-1.575-20.366,3.51-28.95h0Z" id="elr9vy2cqbnnl" class="animable" style="transform-origin: 189.914px 139.549px;"></path><path d="M200.941,153.344c-10.914,7.863-20.345,21.41-15.473,35.207,1.564,4.234,4.501,8.109,8.719,10.291-2.287-.707-4.359-2.039-6.078-3.714-7.24-7.036-7.258-18.73-2.587-27.194,3.401-6.361,9.109-11.347,15.419-14.59h0Z" id="elqvfigbhjm" class="animable" style="transform-origin: 191.618px 176.093px;"></path><path d="M184.312,188.809c-13.88,1.491-27.095,8.527-34.987,20.207,5.422-13.373,20.827-21.674,34.987-20.207h0Z" id="elh9xhhv5onn4" class="animable" style="transform-origin: 166.818px 198.829px;"></path><path d="M128.521,220.7c-3.442-18.434,7.152-38.917,24.8-45.777-16.033,9.504-25.166,27.286-24.8,45.777h0Z" id="elwxayfhu5bko" class="animable" style="transform-origin: 140.598px 197.812px;"></path><path d="M140.318,184.056c-2.537-12.398,2.428-26.404,12.469-34.179-7.842,9.7-12.106,21.735-12.469,34.179h0Z" id="elt6wrmbb0to" class="animable" style="transform-origin: 146.225px 166.966px;"></path><path d="M139.167,184.498c-7.003-.711-13.789,.227-20.375,2.697,5.223-5.044,14.022-6.226,20.375-2.697h0Z" id="elqrh22489ew9" class="animable" style="transform-origin: 128.98px 184.832px;"></path><path d="M158.552,133.078c8.242-7.694,22.871-6.314,29.623,2.681-8.693-6.486-19.918-7.581-29.623-2.681h0Z" id="el76xb4pbvqwx" class="animable" style="transform-origin: 173.364px 131.913px;"></path><path d="M239.79,101.096c5.175-.505,10.376,3.937,10.87,9.079-3.105-3.77-6.547-6.779-10.87-9.079h0Z" id="el44l5woh5nzy" class="animable" style="transform-origin: 245.225px 105.616px;"></path><path d="M119.368,199.105c-6.448,15.805-13.079,33.73-6.249,50.461,2.144,5.312,5.561,10.257,10.485,13.556-2.667-1.279-5.016-3.202-7.04-5.403-14.672-17.221-7.433-41.105,2.805-58.614h0Z" id="elfv4jwluawz" class="animable" style="transform-origin: 115.934px 231.114px;"></path><path d="M127.348,244.947c-8.05,18.061,.078,41.405,19.715,47.259,6.104,1.919,12.839,2.146,19.137,.198-6.071,2.724-13.15,3.039-19.574,1.301-20.887-5.251-29.903-30.733-19.278-48.758h0Z" id="elu0serj2jta" class="animable" style="transform-origin: 144.535px 269.865px;"></path><path d="M94.411,268.988c2.341-8.046,11.117-14.067,19.489-12.929-7.912,1.811-14.641,6.461-19.489,12.929h0Z" id="el20eu6iupsrd" class="animable" style="transform-origin: 104.156px 262.454px;"></path><path d="M96.75,235.091c.498,8.364,3.595,16.245,9.193,22.512-7.654-4.13-11.638-14.217-9.193-22.512h0Z" id="el6moqvxd8ieb" class="animable" style="transform-origin: 100.988px 246.347px;"></path><path d="M112.764,296.265c-.862,25.974,16.203,50.815,43.632,51.449,3.528,.037,7.384-.201,10.903-.235-3.5,.464-7.359,.946-10.894,1.216-28.245,1.188-47.362-25.804-43.641-52.43h0Z" id="elj9v467w8w9s" class="animable" style="transform-origin: 139.8px 322.499px;"></path><path d="M95.474,294.145c5.217,3.905,10.816,6.746,17.105,8.478-6.643,1.142-13.939-2.56-17.105-8.478h0Z" id="el6cee60rxn08" class="animable" style="transform-origin: 104.026px 298.487px;"></path><path d="M158.172,325.958c11.698-1.945,24.34-1.976,35.193,3.558,8.059,4.201,14.565,11.706,16.657,20.615,.636,2.944,.828,5.993,.326,8.925,.172-5.956-1.86-11.672-5.092-16.436-10.39-15.55-29.866-17.426-47.084-16.661h0Z" id="elrqqwkn5rwre" class="animable" style="transform-origin: 184.403px 341.913px;"></path><g id="el1d3dc63bsjd"><g style="opacity: 0.2; transform-origin: 179.848px 233.957px;" class="animable" id="elsnxpgqr7a7"><path d="M157.061,235.675c6.778,6.019,16.231,8.592,24.954,6.793,8.723-1.799,16.534-9.326,20.62-17.586-5.877,3.611-16.975,8.919-23.473,11.074" id="el20344fi7xb7" class="animable" style="transform-origin: 179.848px 233.957px;"></path></g></g><g id="elr1ja00p2xy"><path d="M128.312,209.597s-1.094-18.45,10.855-29.946c11.949-11.495,28.049-9.876,28.049-9.876,0,0-27.034,3.549-38.904,39.822Z" style="opacity: 0.2; transform-origin: 147.751px 189.647px;" class="animable" id="elzg1ib2dsxnb"></path></g><g id="el5k5mk1s8le4"><g style="opacity: 0.2; transform-origin: 211.675px 157.668px;" class="animable" id="el6x1iu5k165g"><path d="M216.3,149.865c-1.456,6.358-5.759,11.542-11.361,14.443,3.679,2.19,8.805,1.2,11.494-2.219s2.63-8.87-.133-12.224Z" id="el3alpcpsq1l9" class="animable" style="transform-origin: 211.675px 157.668px;"></path></g></g><g id="el07cbrroms8em"><path d="M201.7,263.701c.375,.38,6.601,15.81,25.856,15.972,19.254,.162,21.927-7.212,21.927-7.212,0,0-15.561,5.209-32.331-.773-16.77-5.982-15.452-7.988-15.452-7.988Z" style="opacity: 0.2; transform-origin: 225.579px 271.688px;" class="animable" id="elarlhnuzw11l"></path></g></g></g><g id="eleroh9r9y77g"><path d="M134.571,286.262s9.588,15.721,25.177,13.986c15.589-1.735,18.087-12.142,18.087-12.142,0,0-6.146,5.216-21.632,6.154-12.425,.752-21.632-7.998-21.632-7.998Z" style="opacity: 0.2; transform-origin: 156.203px 293.322px;" class="animable" id="elvbpbx9q8dsq"></path></g><g id="elkd4zn6cqu1l"><path d="M222.601,174.923s2.673,15.729,16.037,22.103c9.889,4.716,14.732,3.347,14.732,3.347l-.048-6.191s-13.713,3.298-30.721-19.259Z" style="opacity: 0.2; transform-origin: 237.985px 187.74px;" class="animable" id="elr4xzhoy6vz"></path></g><g id="eluzbtxqa32pe"><g style="opacity: 0.2; transform-origin: 229.441px 135.894px;" class="animable" id="el57ooe3acyx7"><path d="M213.445,131.301c5.561-3.844,12.914-4.689,19.14-2.198s11.164,8.252,12.852,14.996c-6.719-10.186-19.384-15.671-31.021-13.434" id="elsrdsqz0s3rk" class="animable" style="transform-origin: 229.441px 135.894px;"></path></g></g><g id="el060u0noj09sq"><g style="opacity: 0.2; transform-origin: 147.519px 164.828px;" class="animable" id="elbwic3p7ez8h"><path d="M139.361,184.066c-3.84-10.256-1.797-22.661,5.101-30.982,3.358-4.051,8.013-7.234,13.133-7.493-10.99,8.944-17.696,23.38-17.628,37.945" id="elmnww4n9450o" class="animable" style="transform-origin: 147.519px 164.828px;"></path></g></g><g id="eli9e9rer6j9e"><g style="opacity: 0.2; transform-origin: 184.097px 327.73px;" class="animable" id="el6owb77ljz56"><path d="M166.487,324.536c5.737-4.288,13.391-5.632,20.152-3.54,6.762,2.092,12.484,7.575,15.068,14.437-9.837-7.531-22.332-11.17-34.475-10.04" id="el97o9oyz34m" class="animable" style="transform-origin: 184.097px 327.73px;"></path></g></g><g id="el1dt3d30oeh1"><path d="M161.918,236.086c-.394-.039,6.283,3.103,6.283,3.103,0,0-11.105,19.718,4.87,33.568,0,0-6.83-14.65-4.134-25.258,2.696-10.608,9.586-12.505,9.586-12.505,0,0-10.013,1.74-16.605,1.093Z" style="opacity: 0.2; transform-origin: 170.212px 253.875px;" class="animable" id="el2aks6torco7"></path></g><g id="el4yu1agwbrkg"><path d="M153.781,202.524s4.833-11.961,14.095-16.064c9.263-4.103,11.971-2.393,11.971-2.393,0,0-1.345-10.093,6.594-15.861,0,0-4.813,15.043-2.13,20.604,0,0-17.493-1.069-30.531,13.714Z" style="opacity: 0.2; transform-origin: 170.11px 185.365px;" class="animable" id="eldftah99bt6r"></path></g><g id="elwennan35wn"><g style="opacity: 0.2; transform-origin: 171.601px 206.616px;" class="animable" id="eli0yprsk2erb"><path d="M186.626,200.253c-.546-.833-1.192-1.529-1.907-2.127-3.098-2.587-7.322-3.148-11.055-1.754-5.772,2.156-10.976,5.683-15.269,10.362-2.06,2.245-4.016,5.396-2.278,8.321,.553,.93,1.425,1.614,2.4,2.013,2.465,1.008,5.014,.402,7.443-.295,5.647-1.619,11.158-3.758,16.449-6.383,2.643-1.312,5.489-3.019,5.34-6.755-.048-1.211-.468-2.383-1.123-3.383Z" style="fill: rgb(255, 255, 255); transform-origin: 171.601px 206.616px;" id="elugttos53gaa" class="animable"></path></g></g><g id="eler7xj5l7bqs"><g style="opacity: 0.2; transform-origin: 155.757px 187.125px;" class="animable" id="elv5y2kz7gywa"><path d="M173.492,178.962c-1.932-3.71-6.211-5.34-10.049-4.022-10.296,3.536-19.309,11.098-24.751,20.91-.568,1.024-1.094,2.359-.316,3.3,.414,.501,1.089,.687,1.714,.584,1.109-.182,1.9-1.011,2.668-1.795,8.595-8.778,19.256-15.327,30.773-18.902l-.039-.075Z" style="fill: rgb(255, 255, 255); transform-origin: 155.757px 187.125px;" id="elabdvorbecbf" class="animable"></path></g></g><g id="elflffx2iwk5"><g style="opacity: 0.2; transform-origin: 203.035px 132.351px;" class="animable" id="eld19ijd16n4b"><path d="M211.068,118.724c-1.091-1.475-2.992-2.061-4.775-2.049-4.084,.028-7.866,2.813-9.926,6.502s-2.574,8.145-2.196,12.398c.378,4.253,1.592,8.371,2.798,12.452l1.019-.142c1.354-7.582,6.973-13.379,11.365-19.575,.997-1.407,1.956-2.889,2.41-4.575,.453-1.686,.329-3.626-.695-5.011Z" style="fill: rgb(255, 255, 255); transform-origin: 203.035px 132.351px;" id="el0qyh8cw4bb9b" class="animable"></path></g></g><g id="elbs59133ubf"><g style="opacity: 0.2; transform-origin: 230.576px 111.899px;" class="animable" id="elm862uqmgy8k"><path d="M241.406,111.734c-1.931-4.372-7.726-7.185-12.249-8.086-2.456-.05-5.033-.071-7.206,1.127-2.173,1.198-3.723,4.051-2.707,6.39,.636,1.463,2.057,2.344,3.395,3.134,4.237,2.499,8.603,5.045,13.42,5.747,1.58,.23,3.326,.212,4.597-.796,2.077-1.648,1.843-5.04,.75-7.515Z" style="fill: rgb(255, 255, 255); transform-origin: 230.576px 111.899px;" id="elw401we6bsxq" class="animable"></path></g></g><g id="elx8r4778y0md"><g style="opacity: 0.2; transform-origin: 234.268px 156.086px;" class="animable" id="elsroupiywn6c"><path d="M243.521,161.948c-.372-4.259-2.109-7.989-3.923-11.69-.618-1.262-1.267-2.282-1.933-3.108-3.738-4.629-10.992-2.704-12.353,3.184-.461,1.996-.447,4.132,.089,6.1,1.294,4.751,5.131,8.436,9.502,10.309,2.937,1.259,6.946,1.553,8.315-2.075,.324-.859,.384-1.801,.304-2.72Z" style="fill: rgb(255, 255, 255); transform-origin: 234.268px 156.086px;" id="elwfljwck0wn" class="animable"></path></g></g><g id="el3icaagxmqz" class="animable" style="transform-origin: 169.865px 230.299px;"><g id="el4ffzu8wc95q"><g style="opacity: 0.2; transform-origin: 169.865px 300.954px;" class="animable" id="elk6fxu2nqj9"><path d="M223.44,310.356c1.356,7.889,.783,16.291-2.58,23.494-3.363,7.203-9.713,13.046-17.224,14.642-7.511,1.595-15.987-1.555-20.128-8.3-13.569,9.188-35.189,12.937-50.589,2.026-15.4-10.911-22.522-29.295-20.34-48.615-10.389-3.878-20.236-14.338-23.113-25.475-2.878-11.137-.221-23.674,6.886-32.497l-.552-.57c-2.143,3.022-21.894,32.39,.187,58.394,0,0-6.764,21.159,11.656,36.493,0,0,6.766,22.804,38.72,33.026,31.953,10.222,75.56-.393,83.83-24.77,4.686-13.812,5.992-18.154,6.244-19.326,10.417-2.614,17.752-12.399,17.665-23.625l-.119-15.401-.063-.097c-2.279,15.657-15.429,28.861-30.48,30.603Z" id="el7ex7eosxgy5" class="animable" style="transform-origin: 169.865px 300.954px;"></path></g></g><g id="elptj78wq9nrg"><path d="M95.989,217.894l-.002,12.817c.011-2.564,.6-34.501,22.806-61.014,23.151-27.641,34.528-23.201,34.528-23.201,0,0,.789-19.83,33.121-35.504,32.331-15.674,38.482-5.357,38.482-5.357,0,0,7.508-11.531,26.156-7.088-2.876-3.233-10.301-8.215-26.152-1.355,0,0-45.11-3.145-80.071,43.248,0,0-46.151,22.552-48.869,77.454Z" style="fill: rgb(255, 255, 255); opacity: 0.2; transform-origin: 173.534px 162.232px;" class="animable" id="elgf4zxe2rqos"></path></g></g></g><g id="eljbff4vo3jv" class="animable" style="transform-origin: 335.648px 230.299px;"><path d="M252.911,100.73s5.87-12.974,27.674-3.539c0,0,45.11-3.145,80.071,43.248,0,0,46.151,22.552,48.869,77.454l.002,16.906s23.309,31.203,0,58.653c0,0,6.764,21.159-11.656,36.493,0,0-6.767,22.804-38.72,33.026-31.953,10.222-75.56-.393-83.83-24.769-8.27-24.376-6.015-19.265-6.015-19.265h0c-10.539-2.526-17.982-12.377-17.895-23.685l1.499-194.522Z" style="fill: #00FF88; transform-origin: 335.648px 230.298px;" id="elit6hll7a1qo" class="animable"></path><g id="elj16rv96q9dc"><g style="opacity: 0.4; transform-origin: 331.798px 230.056px;" class="animable" id="elcdlg2fy0px8"><path d="M252.495,237.618c16.828,8.079,37.235,3.255,48.33-11.787,3.627-4.776,6.352-10.295,7.859-16.234-.738,6.086-3.041,12.038-6.596,17.151-10.674,16.119-33.239,21.418-49.593,10.87h0Z" id="elszxaal7vja" class="animable" style="transform-origin: 280.59px 226.341px;"></path><path d="M304.464,225.806c14.725,8.321,32.071,11.25,48.688,8.004-16.03,6.107-35.42,2.824-48.688-8.004h0Z" id="el9ce9xg345fv" class="animable" style="transform-origin: 328.808px 231.331px;"></path><path d="M329.723,236.086c5.514,3.134,7.652,9.922,8.269,15.906,1.243,12.425-4.549,25.559-15.298,32.182-5.21,3.312-11.454,5.085-17.603,4.787,6.085-.495,11.866-2.688,16.739-6.087,9.89-6.808,15.182-18.899,14.611-30.769-.343-5.842-1.814-12.299-6.719-16.019h0Z" id="elfv75j8zat4n" class="animable" style="transform-origin: 321.625px 262.54px;"></path><path d="M252.499,271.081c15.467,5.445,33.876,4.437,47.538-5.064,4.455-3.238,8.125-7.617,9.692-13.003-.38,2.789-1.487,5.473-2.976,7.91-11.219,16.395-37.553,19.059-54.254,10.156h0Z" id="eld6c5fthjugg" class="animable" style="transform-origin: 281.114px 264.558px;"></path><path d="M305.859,165.168c-10.436,.283-18.887-10.886-16.635-20.891,.298,2.456,.838,4.791,1.675,6.996,2.477,6.74,8.07,11.823,14.959,13.895h0Z" id="elkckf5uswdec" class="animable" style="transform-origin: 297.358px 154.725px;"></path><path d="M252.847,194.182c14.236-1.751,24.662-12.707,32.359-23.989,2.657-3.827,5.159-7.792,7.832-11.665-7.356,16.402-20.001,36.075-40.191,35.654h0Z" id="eler2smcmtaxm" class="animable" style="transform-origin: 272.942px 176.358px;"></path><path d="M253.57,154.404c5.397-12.25,15.534-26.094,30.43-25.465,4.726,.262,9.439,2.351,12.309,6-3.473-3.039-7.965-4.453-12.357-4.44-14.199,.305-23.129,13.202-30.382,23.905h0Z" id="eleou1xbfgft" class="animable" style="transform-origin: 274.939px 141.661px;"></path><path d="M280.681,128.951c-1.893-3.629-.132-8.278,2.692-10.976,2.897-2.748,6.704-4.085,10.546-4.695-1.613,1.067-3.281,1.954-4.851,2.916-4.623,2.697-8.699,7.04-8.387,12.754h0Z" id="elmfay6mw2b2h" class="animable" style="transform-origin: 286.906px 121.116px;"></path><path d="M313.471,120.52c5.085,8.584,6.045,19.374,3.51,28.95-.867,3.21-2.152,6.309-3.895,9.108l-.219-.079,.345-.917-.118,.972-.219-.079c1.087-3.09,1.936-6.209,2.517-9.367,1.795-9.537,1.002-19.331-1.922-28.589h0Z" id="elzlqnritr9k" class="animable" style="transform-origin: 315.599px 139.549px;"></path><path d="M304.573,153.344c6.31,3.242,12.018,8.228,15.419,14.589,4.671,8.463,4.653,20.161-2.587,27.195-1.719,1.674-3.791,3.007-6.078,3.714,4.218-2.181,7.155-6.057,8.719-10.291,4.871-13.8-4.557-27.341-15.473-35.207h0Z" id="elruhtaxftd1n" class="animable" style="transform-origin: 313.896px 176.093px;"></path><path d="M321.202,188.809c14.159-1.467,29.565,6.834,34.987,20.207-7.892-11.68-21.106-18.716-34.987-20.207h0Z" id="elzu6rgiozfn" class="animable" style="transform-origin: 338.695px 198.829px;"></path><path d="M376.993,220.7c.366-18.491-8.768-36.273-24.8-45.777,17.649,6.861,28.242,27.342,24.8,45.777h0Z" id="elc3a35a50lr" class="animable" style="transform-origin: 364.916px 197.812px;"></path><path d="M365.195,184.056c-.363-12.444-4.627-24.48-12.47-34.179,10.042,7.775,15.007,21.781,12.47,34.179h0Z" id="ellzldqlbt08a" class="animable" style="transform-origin: 359.288px 166.966px;"></path><path d="M366.346,184.498c6.353-3.53,15.152-2.348,20.375,2.696-6.586-2.469-13.371-3.407-20.375-2.696h0Z" id="ele69flllevr" class="animable" style="transform-origin: 376.534px 184.831px;"></path><path d="M346.962,133.078c-9.707-4.901-20.931-3.804-29.623,2.681,6.752-8.995,21.382-10.374,29.623-2.681h0Z" id="elc5f3iwevgef" class="animable" style="transform-origin: 332.151px 131.914px;"></path><path d="M265.723,101.096c-4.323,2.3-7.765,5.309-10.87,9.079,.494-5.142,5.695-9.584,10.87-9.079h0Z" id="ellf2ctl0aay" class="animable" style="transform-origin: 260.288px 105.616px;"></path><path d="M386.146,199.105c10.238,17.505,17.476,41.398,2.805,58.614-2.024,2.201-4.374,4.124-7.04,5.403,4.924-3.3,8.341-8.244,10.485-13.556,6.829-16.734,.2-34.651-6.249-50.461h0Z" id="ell9jevolz1ae" class="animable" style="transform-origin: 389.581px 231.114px;"></path><path d="M378.165,244.947c10.626,18.033,1.608,43.504-19.278,48.758-6.424,1.738-13.503,1.423-19.573-1.301,6.298,1.948,13.033,1.721,19.137-.197,19.637-5.853,27.764-29.204,19.715-47.259h0Z" id="elchk0eamosml" class="animable" style="transform-origin: 360.979px 269.865px;"></path><path d="M411.102,268.988c-4.848-6.467-11.577-11.118-19.489-12.928,8.372-1.138,17.148,4.882,19.489,12.928h0Z" id="elto3ri1tzczd" class="animable" style="transform-origin: 401.357px 262.455px;"></path><path d="M408.763,235.091c2.445,8.294-1.539,18.382-9.193,22.512,5.597-6.266,8.695-14.148,9.193-22.512h0Z" id="eleuic32jsl77" class="animable" style="transform-origin: 404.525px 246.347px;"></path><path d="M392.749,296.265c3.72,26.637-15.399,53.615-43.641,52.429-3.534-.272-7.389-.752-10.894-1.215,3.515,.034,7.374,.274,10.903,.235,27.432-.631,44.496-25.487,43.631-51.449h0Z" id="elh9mmlpzrngg" class="animable" style="transform-origin: 365.713px 322.498px;"></path><path d="M410.04,294.145c-3.166,5.918-10.462,9.62-17.105,8.478,6.289-1.732,11.888-4.574,17.105-8.478h0Z" id="elnf2aveutcj" class="animable" style="transform-origin: 401.488px 298.487px;"></path><path d="M347.341,325.958c-17.216-.765-36.695,1.112-47.083,16.662-3.232,4.764-5.264,10.48-5.092,16.436-.502-2.932-.31-5.98,.326-8.925,2.092-8.909,8.598-16.414,16.657-20.615,10.853-5.533,23.494-5.502,35.193-3.558h0Z" id="elez71wffiwe8" class="animable" style="transform-origin: 321.111px 341.913px;"></path><g id="ellbf8mw9zc1o"><g style="opacity: 0.2; transform-origin: 325.666px 233.957px;" class="animable" id="elp93szn5tt2"><path d="M348.453,235.675c-6.778,6.019-16.231,8.592-24.954,6.793-8.723-1.799-16.534-9.326-20.62-17.586,5.877,3.611,16.975,8.919,23.473,11.074" id="elqubcccw0x1" class="animable" style="transform-origin: 325.666px 233.957px;"></path></g></g><g id="el7pmimyjzas"><path d="M377.202,209.597s1.094-18.45-10.855-29.946c-11.95-11.495-28.049-9.876-28.049-9.876,0,0,27.034,3.549,38.904,39.822Z" style="opacity: 0.2; transform-origin: 357.763px 189.647px;" class="animable" id="elh7y43x9oti7"></path></g><g id="elnp29rsnl07p"><g style="opacity: 0.2; transform-origin: 293.838px 157.668px;" class="animable" id="elz70lvhuka3k"><path d="M289.213,149.865c1.456,6.358,5.759,11.542,11.361,14.443-3.679,2.19-8.805,1.2-11.494-2.219-2.69-3.419-2.63-8.87,.133-12.224Z" id="el689a55k470x" class="animable" style="transform-origin: 293.838px 157.668px;"></path></g></g><g id="elqfcf99pi1c"><path d="M303.814,263.701c-.375,.38-6.601,15.81-25.856,15.972-19.254,.162-21.927-7.212-21.927-7.212,0,0,15.561,5.209,32.331-.773,16.77-5.982,15.452-7.988,15.452-7.988Z" style="opacity: 0.2; transform-origin: 279.935px 271.688px;" class="animable" id="elgi3rt7su9qp"></path></g></g></g><g id="elz83baiegver"><path d="M370.943,286.262s-9.588,15.721-25.177,13.986c-15.59-1.735-18.087-12.142-18.087-12.142,0,0,6.146,5.216,21.632,6.154,12.424,.752,21.632-7.998,21.632-7.998Z" style="opacity: 0.2; transform-origin: 349.311px 293.322px;" class="animable" id="el9762u8xd3ve"></path></g><g id="elzdhnuc9dt0e"><path d="M282.912,174.923s-2.673,15.729-16.037,22.103c-9.889,4.716-14.732,3.347-14.732,3.347l.048-6.191s13.713,3.298,30.721-19.259Z" style="opacity: 0.2; transform-origin: 267.528px 187.74px;" class="animable" id="elgxougll1wvk"></path></g><g id="elyjofpm3yxki"><g style="opacity: 0.2; transform-origin: 276.072px 135.894px;" class="animable" id="el9bwnp92e53"><path d="M292.068,131.301c-5.561-3.844-12.914-4.689-19.14-2.198-6.226,2.491-11.164,8.252-12.852,14.996,6.719-10.186,19.384-15.671,31.021-13.434" id="elv9gloj4d98o" class="animable" style="transform-origin: 276.072px 135.894px;"></path></g></g><g id="elmp399td54bn"><g style="opacity: 0.2; transform-origin: 357.995px 164.828px;" class="animable" id="el8pa8cbyclzm"><path d="M366.153,184.066c3.84-10.256,1.797-22.661-5.101-30.982-3.358-4.051-8.013-7.234-13.133-7.493,10.99,8.944,17.696,23.38,17.628,37.945" id="elplp1mj749k" class="animable" style="transform-origin: 357.995px 164.828px;"></path></g></g><g id="eltjthd9mtec"><g style="opacity: 0.2; transform-origin: 321.417px 327.73px;" class="animable" id="elnaefonpfen"><path d="M339.027,324.536c-5.737-4.288-13.391-5.632-20.152-3.54-6.762,2.092-12.484,7.575-15.068,14.437,9.837-7.531,22.332-11.17,34.475-10.04" id="elqmi28lsgox" class="animable" style="transform-origin: 321.417px 327.73px;"></path></g></g><g id="el223le1sfibe"><path d="M343.595,236.086c.394-.039-6.283,3.103-6.283,3.103,0,0,11.105,19.718-4.87,33.568,0,0,6.83-14.65,4.134-25.258s-9.586-12.505-9.586-12.505c0,0,10.013,1.74,16.605,1.093Z" style="opacity: 0.2; transform-origin: 335.301px 253.875px;" class="animable" id="elutaqcfcneoo"></path></g><g id="elkwqnj6ccime"><path d="M351.732,202.524s-4.833-11.961-14.095-16.064c-9.263-4.103-11.971-2.393-11.971-2.393,0,0,1.345-10.093-6.594-15.861,0,0,4.813,15.043,2.13,20.604,0,0,17.493-1.069,30.531,13.714Z" style="opacity: 0.2; transform-origin: 335.402px 185.365px;" class="animable" id="el5n7rppef0y5"></path></g><g id="elnhel77sfjvk"><g style="opacity: 0.2; transform-origin: 333.912px 206.616px;" class="animable" id="elhfxbroblw99"><path d="M318.888,200.253c.546-.833,1.192-1.529,1.907-2.127,3.098-2.587,7.322-3.148,11.055-1.754,5.772,2.156,10.976,5.683,15.268,10.362,2.06,2.245,4.016,5.396,2.278,8.321-.553,.93-1.425,1.614-2.4,2.013-2.465,1.008-5.014,.402-7.443-.295-5.647-1.619-11.158-3.758-16.449-6.383-2.643-1.312-5.489-3.019-5.34-6.755,.048-1.211,.468-2.383,1.123-3.383Z" style="fill: rgb(255, 255, 255); transform-origin: 333.912px 206.616px;" id="elyv1q3dagh8" class="animable"></path></g></g><g id="elwdhwzfgtl27"><g style="opacity: 0.2; transform-origin: 349.756px 187.125px;" class="animable" id="elua6eg2r0l4d"><path d="M332.021,178.962c1.932-3.71,6.211-5.34,10.049-4.022,10.296,3.536,19.309,11.098,24.751,20.91,.568,1.024,1.094,2.359,.316,3.3-.414,.501-1.089,.687-1.714,.584-1.109-.182-1.9-1.011-2.668-1.795-8.595-8.778-19.256-15.327-30.773-18.902l.039-.075Z" style="fill: rgb(255, 255, 255); transform-origin: 349.756px 187.125px;" id="elly7y75w34vo" class="animable"></path></g></g><g id="el0axa9g9hg5x"><g style="opacity: 0.2; transform-origin: 302.479px 132.351px;" class="animable" id="elu6ud62afdzo"><path d="M294.445,118.724c1.091-1.475,2.992-2.061,4.775-2.049,4.084,.028,7.866,2.813,9.926,6.502,2.06,3.689,2.574,8.145,2.196,12.398-.378,4.253-1.592,8.371-2.798,12.452l-1.019-.142c-1.354-7.582-6.973-13.379-11.365-19.575-.997-1.407-1.956-2.889-2.409-4.575-.453-1.686-.329-3.626,.695-5.011Z" style="fill: rgb(255, 255, 255); transform-origin: 302.479px 132.351px;" id="elun12l3kg6b" class="animable"></path></g></g><g id="el5asah4pq3ud"><g style="opacity: 0.2; transform-origin: 274.937px 111.899px;" class="animable" id="elc8pb20kw4os"><path d="M264.107,111.734c1.931-4.372,7.726-7.185,12.249-8.086,2.456-.05,5.033-.071,7.206,1.127s3.723,4.051,2.707,6.39c-.636,1.463-2.057,2.344-3.395,3.134-4.237,2.499-8.603,5.045-13.42,5.747-1.58,.23-3.326,.212-4.597-.796-2.077-1.648-1.843-5.04-.75-7.515Z" style="fill: rgb(255, 255, 255); transform-origin: 274.937px 111.899px;" id="elug22rmk5sp" class="animable"></path></g></g><g id="el7v3mkoyxalm"><g style="opacity: 0.2; transform-origin: 278.303px 211.277px;" class="animable" id="el6p1yaidi8vb"><path d="M269.05,217.139c.372-4.259,2.109-7.989,3.923-11.69,.618-1.262,1.267-2.282,1.933-3.108,3.738-4.629,10.992-2.704,12.353,3.184,.461,1.996,.447,4.132-.089,6.1-1.294,4.751-5.131,8.436-9.502,10.309-2.937,1.259-6.946,1.553-8.315-2.075-.324-.859-.384-1.801-.304-2.72Z" style="fill: rgb(255, 255, 255); transform-origin: 278.303px 211.277px;" id="elhp7kxyphutg" class="animable"></path></g></g><g id="elz4yrl1eh2qb" class="animable" style="transform-origin: 335.648px 230.299px;"><g id="el89jv4tqp204"><g style="opacity: 0.2; transform-origin: 335.648px 300.954px;" class="animable" id="elhm7nng1azen"><path d="M282.073,310.356c-1.356,7.889-.783,16.291,2.58,23.494,3.363,7.203,9.713,13.046,17.224,14.642,7.511,1.595,15.987-1.555,20.128-8.3,13.569,9.188,35.189,12.937,50.589,2.026,15.4-10.911,22.522-29.295,20.34-48.615,10.389-3.878,20.236-14.338,23.113-25.475,2.878-11.137,.221-23.674-6.886-32.497l.552-.57c2.143,3.022,21.894,32.39-.187,58.394,0,0,6.764,21.159-11.656,36.493,0,0-6.767,22.804-38.72,33.026-31.953,10.222-75.56-.393-83.83-24.77-4.686-13.812-5.992-18.154-6.244-19.326-10.417-2.614-17.752-12.399-17.665-23.625l.119-15.401,.063-.097c2.279,15.657,15.429,28.861,30.48,30.603Z" id="elkuhtactu6v" class="animable" style="transform-origin: 335.648px 300.954px;"></path></g></g><g id="el6nm0cj3c42"><path d="M409.525,217.894l.002,12.817c-.011-2.564-.6-34.501-22.806-61.014-23.151-27.641-34.528-23.201-34.528-23.201,0,0-.789-19.83-33.121-35.504-32.331-15.674-38.482-5.357-38.482-5.357,0,0-7.509-11.531-26.156-7.088,2.876-3.233,10.301-8.215,26.152-1.355,0,0,45.11-3.145,80.071,43.248,0,0,46.151,22.552,48.87,77.454Z" style="fill: rgb(255, 255, 255); opacity: 0.2; transform-origin: 331.98px 162.232px;" class="animable" id="el8ka6wuciag9"></path></g></g></g><g id="elsntzjpqx03" class="animable" style="transform-origin: 252.617px 200.831px;"><path d="M252.332,299.889c-.468-63.463-.269-134.658,.57-198.117,.474,63.463,.263,134.658-.57,198.117h0Z" style="fill: #00FF88; transform-origin: 252.618px 200.831px;" id="elkujpl1srgp" class="animable"></path><g id="el3tqdkxj5bhl"><path d="M252.332,299.889c-1.148-65.796-.967-132.329,.57-198.117,1.158,65.796,.956,132.329-.57,198.117h0Z" style="opacity: 0.6; transform-origin: 252.617px 200.831px;" class="animable" id="elj4c7b3e7lc"></path></g></g></g></g><defs>     <filter id="active" height="200%">         <feMorphology in="SourceAlpha" result="DILATED" operator="dilate" radius="2"></feMorphology>                <feFlood flood-color="#32DFEC" flood-opacity="1" result="PINK"></feFlood>        <feComposite in="PINK" in2="DILATED" operator="in" result="OUTLINE"></feComposite>        <feMerge>            <feMergeNode in="OUTLINE"></feMergeNode>            <feMergeNode in="SourceGraphic"></feMergeNode>        </feMerge>    </filter>    <filter id="hover" height="200%">        <feMorphology in="SourceAlpha" result="DILATED" operator="dilate" radius="2"></feMorphology>                <feFlood flood-color="#ff0000" flood-opacity="0.5" result="PINK"></feFlood>        <feComposite in="PINK" in2="DILATED" operator="in" result="OUTLINE"></feComposite>        <feMerge>            <feMergeNode in="OUTLINE"></feMergeNode>            <feMergeNode in="SourceGraphic"></feMergeNode>        </feMerge>            <feColorMatrix type="matrix" values="0   0   0   0   0                0   1   0   0   0                0   0   0   0   0                0   0   0   1   0 "></feColorMatrix>    </filter></defs></svg>